<svg xmlns="http://www.w3.org/2000/svg" width="128" height="128" viewBox="0 0 128 128" fill="none">
  <g filter="url(#shadow)">
    <path
      d="M35 24C35 18.4772 39.4772 14 45 14H83C88.5228 14 93 18.4772 93 24V28C101.284 28 108 34.7157 108 43V47C108 55.2843 101.284 62 93 62V85C93 92.1797 87.1797 98 80 98H47C39.8203 98 34 92.1797 34 85V24H35Z"
      fill="#FFFDF7"
    />
    <path
      d="M45 18H83C86.3137 18 89 20.6863 89 24V85C89 89.4183 85.4183 93 81 93H47C42.5817 93 39 89.4183 39 85V24C39 20.6863 41.6863 18 45 18Z"
      fill="#F6EFE4"
      stroke="#3F2B1C"
      stroke-width="3"
    />
    <path
      d="M93 33C98.5228 33 103 37.4772 103 43V47C103 52.5228 98.5228 57 93 57"
      stroke="#FFFDF7"
      stroke-width="10"
      stroke-linecap="round"
      stroke-linejoin="round"
    />
    <path
      d="M93 33C98.5228 33 103 37.4772 103 43V47C103 52.5228 98.5228 57 93 57"
      stroke="#3F2B1C"
      stroke-width="3"
      stroke-linecap="round"
      stroke-linejoin="round"
    />
    <ellipse cx="64" cy="30" rx="20" ry="8" fill="#6E4123"/>
    <ellipse cx="64" cy="30" rx="20" ry="8" fill="url(#coffeeGloss)" opacity=".35"/>
    <rect x="43" y="45" width="42" height="20" rx="4" fill="#6F4C33" stroke="#3F2B1C" stroke-width="3"/>
    <rect x="47" y="49" width="34" height="3" fill="#B69273" opacity=".45"/>
    <path d="M49 74H79" stroke="#D5CCBE" stroke-width="2" stroke-linecap="round" opacity=".7"/>
    <path d="M49 80H73" stroke="#D5CCBE" stroke-width="2" stroke-linecap="round" opacity=".55"/>
    <path d="M47 86H77" stroke="#E5DDD0" stroke-width="2.5" stroke-linecap="round" opacity=".6"/>

    <path d="M48 4C52 11 46 18 50 26" stroke="#FFFDF7" stroke-width="11" stroke-linecap="round"/>
    <path d="M64 2C69 10 61 18 66 27" stroke="#FFFDF7" stroke-width="11" stroke-linecap="round"/>
    <path d="M80 6C85 13 78 20 83 28" stroke="#FFFDF7" stroke-width="11" stroke-linecap="round"/>

    <path d="M48 4C52 11 46 18 50 26" stroke="#C8B9A7" stroke-width="3.5" stroke-linecap="round"/>
    <path d="M64 2C69 10 61 18 66 27" stroke="#C8B9A7" stroke-width="3.5" stroke-linecap="round"/>
    <path d="M80 6C85 13 78 20 83 28" stroke="#C8B9A7" stroke-width="3.5" stroke-linecap="round"/>
  </g>

  <defs>
    <linearGradient id="coffeeGloss" x1="64" y1="22" x2="64" y2="38" gradientUnits="userSpaceOnUse">
      <stop stop-color="#F6D3A6"/>
      <stop offset="1" stop-color="#6E4123" stop-opacity="0"/>
    </linearGradient>
    <filter id="shadow" x="18" y="0" width="100" height="111" filterUnits="userSpaceOnUse" color-interpolation-filters="sRGB">
      <feDropShadow dx="0" dy="10" stdDeviation="6" flood-color="#2B1607" flood-opacity=".18"/>
    </filter>
  </defs>
</svg>
